<svg width="83" height="47" viewBox="0 0 83 47" fill="none" xmlns="http://www.w3.org/2000/svg">
<path d="M35.848 23.6H40.392V46H36.232V42.224C34.5253 43.5893 32.52 44.6347 30.216 45.36C27.9547 46.0427 25.5227 46.384 22.92 46.384C18.9093 46.384 15.176 45.488 11.72 43.696C8.30667 41.904 5.55467 39.3013 3.464 35.888C1.37333 32.4747 0.328 28.4213 0.328 23.728C0.328 19.376 1.352 15.472 3.4 12.016C5.448 8.51733 8.264 5.78666 11.848 3.824C15.432 1.81866 19.4853 0.815998 24.008 0.815998C27.4213 0.815998 30.5573 1.37067 33.416 2.48C36.2747 3.54667 38.6853 5.14666 40.648 7.28L37.704 10.288C34.1627 6.78933 29.6613 5.04 24.2 5.04C20.5733 5.04 17.288 5.85066 14.344 7.472C11.4427 9.05067 9.16 11.2693 7.496 14.128C5.832 16.9867 5 20.1867 5 23.728C5 27.5253 5.832 30.832 7.496 33.648C9.20267 36.4213 11.4427 38.5547 14.216 40.048C17.032 41.4987 20.04 42.224 23.24 42.224C25.5867 42.224 27.848 41.84 30.024 41.072C32.2427 40.2613 34.184 39.0453 35.848 37.424V23.6ZM66.148 46.384C62.82 46.384 59.62 45.8507 56.548 44.784C53.5187 43.7173 51.172 42.3093 49.508 40.56L51.364 36.912C52.9853 38.5333 55.14 39.856 57.828 40.88C60.516 41.8613 63.2893 42.352 66.148 42.352C70.1587 42.352 73.1667 41.6267 75.172 40.176C77.1773 38.6827 78.18 36.7627 78.18 34.416C78.18 32.624 77.6253 31.1947 76.516 30.128C75.4493 29.0613 74.1267 28.2507 72.548 27.696C70.9693 27.0987 68.772 26.4587 65.956 25.776C62.5853 24.9227 59.8973 24.112 57.892 23.344C55.8867 22.5333 54.1587 21.3173 52.708 19.696C51.3 18.0747 50.596 15.8773 50.596 13.104C50.596 10.8427 51.1933 8.79467 52.388 6.96C53.5827 5.08266 55.4173 3.58933 57.892 2.48C60.3667 1.37067 63.4387 0.815998 67.108 0.815998C69.668 0.815998 72.164 1.17867 74.596 1.904C77.0707 2.58666 79.204 3.54666 80.996 4.784L79.396 8.56C77.5187 7.32266 75.5133 6.40533 73.38 5.808C71.2467 5.168 69.156 4.848 67.108 4.848C63.1827 4.848 60.2173 5.616 58.212 7.152C56.2493 8.64533 55.268 10.5867 55.268 12.976C55.268 14.768 55.8013 16.2187 56.868 17.328C57.9773 18.3947 59.3427 19.2267 60.964 19.824C62.628 20.3787 64.8467 20.9973 67.62 21.68C70.9053 22.4907 73.5507 23.3013 75.556 24.112C77.604 24.88 79.332 26.0747 80.74 27.696C82.148 29.2747 82.852 31.4293 82.852 34.16C82.852 36.4213 82.2333 38.4907 80.996 40.368C79.8013 42.2027 77.9453 43.6747 75.428 44.784C72.9107 45.8507 69.8173 46.384 66.148 46.384Z" fill="#1B3110"/>
</svg>
